<mxfile host="app.diagrams.net" agent="Mozilla/5.0 (Windows NT 10.0; Win64; x64) AppleWebKit/537.36 (KHTML, like Gecko) Chrome/139.0.0.0 Safari/537.36 Edg/139.0.0.0" version="28.1.0">
  <diagram name="Страница — 1" id="3mzDTAyw_CYtFw3oErur">
    <mxGraphModel dx="2089" dy="1254" grid="1" gridSize="10" guides="1" tooltips="1" connect="1" arrows="1" fold="1" page="1" pageScale="1" pageWidth="827" pageHeight="1169" math="0" shadow="0">
      <root>
        <mxCell id="0" />
        <mxCell id="1" parent="0" />
        <mxCell id="6Dwv_gRU4rAswYw_UrcP-60" value="" style="endArrow=none;html=1;rounded=0;exitX=0;exitY=1;exitDx=0;exitDy=0;entryX=1;entryY=1;entryDx=0;entryDy=0;" edge="1" parent="1" source="6Dwv_gRU4rAswYw_UrcP-25" target="6Dwv_gRU4rAswYw_UrcP-57">
          <mxGeometry width="50" height="50" relative="1" as="geometry">
            <mxPoint x="230" y="80" as="sourcePoint" />
            <mxPoint x="280" y="30" as="targetPoint" />
          </mxGeometry>
        </mxCell>
        <mxCell id="6Dwv_gRU4rAswYw_UrcP-59" value="" style="endArrow=none;html=1;rounded=0;entryX=0.75;entryY=0;entryDx=0;entryDy=0;exitX=0.75;exitY=1;exitDx=0;exitDy=0;" edge="1" parent="1" source="6Dwv_gRU4rAswYw_UrcP-16" target="6Dwv_gRU4rAswYw_UrcP-16">
          <mxGeometry width="50" height="50" relative="1" as="geometry">
            <mxPoint x="710" y="190" as="sourcePoint" />
            <mxPoint x="760" y="140" as="targetPoint" />
          </mxGeometry>
        </mxCell>
        <mxCell id="6Dwv_gRU4rAswYw_UrcP-19" value="" style="endArrow=none;html=1;rounded=0;entryX=0.5;entryY=0;entryDx=0;entryDy=0;exitX=0.5;exitY=1;exitDx=0;exitDy=0;" edge="1" parent="1" source="6Dwv_gRU4rAswYw_UrcP-16" target="6Dwv_gRU4rAswYw_UrcP-16">
          <mxGeometry width="50" height="50" relative="1" as="geometry">
            <mxPoint x="520" y="190" as="sourcePoint" />
            <mxPoint x="570" y="140" as="targetPoint" />
          </mxGeometry>
        </mxCell>
        <mxCell id="6Dwv_gRU4rAswYw_UrcP-58" value="" style="endArrow=none;html=1;rounded=0;entryX=0.25;entryY=0;entryDx=0;entryDy=0;exitX=0.25;exitY=1;exitDx=0;exitDy=0;" edge="1" parent="1" source="6Dwv_gRU4rAswYw_UrcP-16" target="6Dwv_gRU4rAswYw_UrcP-16">
          <mxGeometry width="50" height="50" relative="1" as="geometry">
            <mxPoint x="320" y="290" as="sourcePoint" />
            <mxPoint x="370" y="240" as="targetPoint" />
          </mxGeometry>
        </mxCell>
        <mxCell id="6Dwv_gRU4rAswYw_UrcP-16" value="" style="rounded=1;whiteSpace=wrap;html=1;absoluteArcSize=1;fillColor=none;strokeColor=#5F5F5F;" vertex="1" parent="1">
          <mxGeometry x="160" y="40" width="760" height="280" as="geometry" />
        </mxCell>
        <mxCell id="6Dwv_gRU4rAswYw_UrcP-25" value="Q1" style="text;html=1;align=center;verticalAlign=middle;whiteSpace=wrap;rounded=0;" vertex="1" parent="1">
          <mxGeometry x="160" y="40" width="190" height="40" as="geometry" />
        </mxCell>
        <mxCell id="6Dwv_gRU4rAswYw_UrcP-26" value="Q3" style="text;html=1;align=center;verticalAlign=middle;whiteSpace=wrap;rounded=0;" vertex="1" parent="1">
          <mxGeometry x="540" y="40" width="190" height="40" as="geometry" />
        </mxCell>
        <mxCell id="6Dwv_gRU4rAswYw_UrcP-56" value="Q2" style="text;html=1;align=center;verticalAlign=middle;whiteSpace=wrap;rounded=0;" vertex="1" parent="1">
          <mxGeometry x="350" y="40" width="190" height="40" as="geometry" />
        </mxCell>
        <mxCell id="6Dwv_gRU4rAswYw_UrcP-57" value="Q4" style="text;html=1;align=center;verticalAlign=middle;whiteSpace=wrap;rounded=0;" vertex="1" parent="1">
          <mxGeometry x="730" y="40" width="190" height="40" as="geometry" />
        </mxCell>
        <mxCell id="6Dwv_gRU4rAswYw_UrcP-61" value="Архитекторы  " style="text;whiteSpace=wrap;html=1;verticalAlign=middle;" vertex="1" parent="1">
          <mxGeometry x="40" y="80" width="120" height="40" as="geometry" />
        </mxCell>
        <mxCell id="6Dwv_gRU4rAswYw_UrcP-70" value="Финтех-команда" style="text;whiteSpace=wrap;html=1;verticalAlign=middle;" vertex="1" parent="1">
          <mxGeometry x="40" y="120" width="120" height="40" as="geometry" />
        </mxCell>
        <mxCell id="6Dwv_gRU4rAswYw_UrcP-71" value="Data Engineers" style="text;whiteSpace=wrap;html=1;verticalAlign=middle;" vertex="1" parent="1">
          <mxGeometry x="40" y="160" width="120" height="40" as="geometry" />
        </mxCell>
        <mxCell id="6Dwv_gRU4rAswYw_UrcP-72" value="Интеграторы" style="text;whiteSpace=wrap;html=1;verticalAlign=middle;" vertex="1" parent="1">
          <mxGeometry x="40" y="200" width="120" height="40" as="geometry" />
        </mxCell>
        <mxCell id="6Dwv_gRU4rAswYw_UrcP-73" value="BI-разработчики" style="text;whiteSpace=wrap;html=1;verticalAlign=middle;" vertex="1" parent="1">
          <mxGeometry x="40" y="240" width="120" height="40" as="geometry" />
        </mxCell>
        <mxCell id="6Dwv_gRU4rAswYw_UrcP-74" value="Мед IT" style="text;whiteSpace=wrap;html=1;verticalAlign=middle;" vertex="1" parent="1">
          <mxGeometry x="40" y="280" width="120" height="40" as="geometry" />
        </mxCell>
        <mxCell id="6Dwv_gRU4rAswYw_UrcP-77" value="" style="endArrow=none;dashed=1;html=1;rounded=0;exitX=0;exitY=1;exitDx=0;exitDy=0;entryX=1;entryY=1;entryDx=0;entryDy=0;strokeColor=#525252;" edge="1" parent="1">
          <mxGeometry width="50" height="50" relative="1" as="geometry">
            <mxPoint x="160" y="280" as="sourcePoint" />
            <mxPoint x="920" y="280" as="targetPoint" />
          </mxGeometry>
        </mxCell>
        <mxCell id="6Dwv_gRU4rAswYw_UrcP-78" value="" style="endArrow=none;dashed=1;html=1;rounded=0;exitX=0;exitY=1;exitDx=0;exitDy=0;entryX=1;entryY=1;entryDx=0;entryDy=0;strokeColor=#525252;" edge="1" parent="1">
          <mxGeometry width="50" height="50" relative="1" as="geometry">
            <mxPoint x="160" y="240" as="sourcePoint" />
            <mxPoint x="920" y="240" as="targetPoint" />
          </mxGeometry>
        </mxCell>
        <mxCell id="6Dwv_gRU4rAswYw_UrcP-79" value="" style="endArrow=none;dashed=1;html=1;rounded=0;exitX=0;exitY=1;exitDx=0;exitDy=0;entryX=1;entryY=1;entryDx=0;entryDy=0;strokeColor=#525252;" edge="1" parent="1">
          <mxGeometry width="50" height="50" relative="1" as="geometry">
            <mxPoint x="160" y="200" as="sourcePoint" />
            <mxPoint x="920" y="200" as="targetPoint" />
          </mxGeometry>
        </mxCell>
        <mxCell id="6Dwv_gRU4rAswYw_UrcP-80" value="" style="endArrow=none;dashed=1;html=1;rounded=0;exitX=0;exitY=1;exitDx=0;exitDy=0;entryX=1;entryY=1;entryDx=0;entryDy=0;strokeColor=#525252;" edge="1" parent="1">
          <mxGeometry width="50" height="50" relative="1" as="geometry">
            <mxPoint x="160" y="160" as="sourcePoint" />
            <mxPoint x="920" y="160" as="targetPoint" />
          </mxGeometry>
        </mxCell>
        <mxCell id="6Dwv_gRU4rAswYw_UrcP-81" value="" style="endArrow=none;dashed=1;html=1;rounded=0;exitX=0;exitY=1;exitDx=0;exitDy=0;entryX=1;entryY=1;entryDx=0;entryDy=0;strokeColor=#525252;" edge="1" parent="1">
          <mxGeometry width="50" height="50" relative="1" as="geometry">
            <mxPoint x="160" y="120" as="sourcePoint" />
            <mxPoint x="920" y="120" as="targetPoint" />
          </mxGeometry>
        </mxCell>
        <mxCell id="6Dwv_gRU4rAswYw_UrcP-55" value="&lt;span style=&quot;font-family: quote-cjk-patch, Inter, system-ui, -apple-system, BlinkMacSystemFont, &amp;quot;Segoe UI&amp;quot;, Roboto, &amp;quot;Noto Sans&amp;quot;, Ubuntu, Cantarell, &amp;quot;Helvetica Neue&amp;quot;, Oxygen, &amp;quot;Open Sans&amp;quot;, sans-serif; text-align: start;&quot;&gt;7. Полное&amp;nbsp;&lt;/span&gt;&lt;div&gt;&lt;span style=&quot;font-family: quote-cjk-patch, Inter, system-ui, -apple-system, BlinkMacSystemFont, &amp;quot;Segoe UI&amp;quot;, Roboto, &amp;quot;Noto Sans&amp;quot;, Ubuntu, Cantarell, &amp;quot;Helvetica Neue&amp;quot;, Oxygen, &amp;quot;Open Sans&amp;quot;, sans-serif; text-align: start;&quot;&gt;внедрение Data Mesh&lt;/span&gt;&lt;/div&gt;" style="rounded=0;whiteSpace=wrap;html=1;fillColor=#e1d5e7;labelBackgroundColor=none;fontSize=12;fontStyle=0;strokeColor=#9673a6;" vertex="1" parent="1">
          <mxGeometry x="800" y="80" width="120" height="240" as="geometry" />
        </mxCell>
        <mxCell id="6Dwv_gRU4rAswYw_UrcP-62" value="&lt;span style=&quot;font-family: quote-cjk-patch, Inter, system-ui, -apple-system, BlinkMacSystemFont, &amp;quot;Segoe UI&amp;quot;, Roboto, &amp;quot;Noto Sans&amp;quot;, Ubuntu, Cantarell, &amp;quot;Helvetica Neue&amp;quot;, Oxygen, &amp;quot;Open Sans&amp;quot;, sans-serif; text-align: start;&quot;&gt;1. Анализ и проектирование&lt;/span&gt;" style="rounded=0;whiteSpace=wrap;html=1;fillColor=#e1d5e7;labelBackgroundColor=none;fontSize=12;fontStyle=0;strokeColor=#9673a6;" vertex="1" parent="1">
          <mxGeometry x="160" y="80" width="120" height="40" as="geometry" />
        </mxCell>
        <mxCell id="6Dwv_gRU4rAswYw_UrcP-63" value="&lt;span style=&quot;font-family: quote-cjk-patch, Inter, system-ui, -apple-system, BlinkMacSystemFont, &amp;quot;Segoe UI&amp;quot;, Roboto, &amp;quot;Noto Sans&amp;quot;, Ubuntu, Cantarell, &amp;quot;Helvetica Neue&amp;quot;, Oxygen, &amp;quot;Open Sans&amp;quot;, sans-serif; text-align: start;&quot;&gt;2. Пилот: Финтех-домен&lt;/span&gt;" style="rounded=0;whiteSpace=wrap;html=1;fillColor=#e1d5e7;labelBackgroundColor=none;fontSize=12;fontStyle=0;strokeColor=#9673a6;" vertex="1" parent="1">
          <mxGeometry x="280" y="120" width="160" height="40" as="geometry" />
        </mxCell>
        <mxCell id="6Dwv_gRU4rAswYw_UrcP-64" value="&lt;span style=&quot;font-family: quote-cjk-patch, Inter, system-ui, -apple-system, BlinkMacSystemFont, &amp;quot;Segoe UI&amp;quot;, Roboto, &amp;quot;Noto Sans&amp;quot;, Ubuntu, Cantarell, &amp;quot;Helvetica Neue&amp;quot;, Oxygen, &amp;quot;Open Sans&amp;quot;, sans-serif; text-align: start;&quot;&gt;3. Внедрение Data Lake&lt;/span&gt;" style="rounded=0;whiteSpace=wrap;html=1;fillColor=#e1d5e7;labelBackgroundColor=none;fontSize=12;fontStyle=0;strokeColor=#9673a6;" vertex="1" parent="1">
          <mxGeometry x="280" y="160" width="220" height="40" as="geometry" />
        </mxCell>
        <mxCell id="6Dwv_gRU4rAswYw_UrcP-65" value="&lt;span style=&quot;font-family: quote-cjk-patch, Inter, system-ui, -apple-system, BlinkMacSystemFont, &amp;quot;Segoe UI&amp;quot;, Roboto, &amp;quot;Noto Sans&amp;quot;, Ubuntu, Cantarell, &amp;quot;Helvetica Neue&amp;quot;, Oxygen, &amp;quot;Open Sans&amp;quot;, sans-serif; text-align: start;&quot;&gt;4. Замена шины данных&lt;/span&gt;" style="rounded=0;whiteSpace=wrap;html=1;fillColor=#e1d5e7;labelBackgroundColor=none;fontSize=12;fontStyle=0;strokeColor=#9673a6;" vertex="1" parent="1">
          <mxGeometry x="460" y="200" width="110" height="40" as="geometry" />
        </mxCell>
        <mxCell id="6Dwv_gRU4rAswYw_UrcP-66" value="&lt;span style=&quot;font-family: quote-cjk-patch, Inter, system-ui, -apple-system, BlinkMacSystemFont, &amp;quot;Segoe UI&amp;quot;, Roboto, &amp;quot;Noto Sans&amp;quot;, Ubuntu, Cantarell, &amp;quot;Helvetica Neue&amp;quot;, Oxygen, &amp;quot;Open Sans&amp;quot;, sans-serif; text-align: start;&quot;&gt;5. Витрина данных (MVP)&lt;/span&gt;" style="rounded=0;whiteSpace=wrap;html=1;fillColor=#e1d5e7;labelBackgroundColor=none;fontSize=12;fontStyle=0;strokeColor=#9673a6;" vertex="1" parent="1">
          <mxGeometry x="540" y="240" width="170" height="40" as="geometry" />
        </mxCell>
        <mxCell id="6Dwv_gRU4rAswYw_UrcP-67" value="&lt;span style=&quot;font-family: quote-cjk-patch, Inter, system-ui, -apple-system, BlinkMacSystemFont, &amp;quot;Segoe UI&amp;quot;, Roboto, &amp;quot;Noto Sans&amp;quot;, Ubuntu, Cantarell, &amp;quot;Helvetica Neue&amp;quot;, Oxygen, &amp;quot;Open Sans&amp;quot;, sans-serif; text-align: start;&quot;&gt;6. Миграция медицинского домена&lt;/span&gt;" style="rounded=0;whiteSpace=wrap;html=1;fillColor=#e1d5e7;labelBackgroundColor=none;fontSize=12;fontStyle=0;strokeColor=#9673a6;" vertex="1" parent="1">
          <mxGeometry x="630" y="280" width="170" height="40" as="geometry" />
        </mxCell>
        <mxCell id="6Dwv_gRU4rAswYw_UrcP-85" value="&lt;table style=&quot;border-collapse: collapse; width: max-content; max-width: max-content; font-family: quote-cjk-patch, Inter, system-ui, -apple-system, BlinkMacSystemFont, &amp;quot;Segoe UI&amp;quot;, Roboto, &amp;quot;Noto Sans&amp;quot;, Ubuntu, Cantarell, &amp;quot;Helvetica Neue&amp;quot;, Oxygen, &amp;quot;Open Sans&amp;quot;, sans-serif; font-size: 16.002px; font-style: normal; font-variant-ligatures: normal; font-variant-caps: normal; font-weight: 400; letter-spacing: normal; orphans: 2; text-align: start; text-transform: none; widows: 2; word-spacing: 0px; -webkit-text-stroke-width: 0px; white-space: normal; text-decoration-thickness: initial; text-decoration-style: initial; text-decoration-color: initial;&quot;&gt;&lt;thead&gt;&lt;tr&gt;&lt;th style=&quot;padding: 10px 10px 10px 0px; border-bottom: 0.727273px solid rgb(139, 139, 139); border-top: none; font-weight: 600; font-size: 15px; line-height: 1.72; border-right-color: rgb(139, 139, 139); border-left-color: rgb(139, 139, 139); text-align: left;&quot;&gt;Этап&lt;/th&gt;&lt;th style=&quot;padding: 10px; border-bottom: 0.727273px solid rgb(139, 139, 139); border-top: none; font-weight: 600; font-size: 15px; line-height: 1.72; border-right-color: rgb(139, 139, 139); border-left-color: rgb(139, 139, 139); text-align: left;&quot;&gt;Срок&lt;/th&gt;&lt;th style=&quot;padding: 10px; border-bottom: 0.727273px solid rgb(139, 139, 139); border-top: none; font-weight: 600; font-size: 15px; line-height: 1.72; border-right-color: rgb(139, 139, 139); border-left-color: rgb(139, 139, 139); text-align: left;&quot;&gt;Результат&lt;/th&gt;&lt;th style=&quot;padding: 10px; border-bottom: 0.727273px solid rgb(139, 139, 139); border-top: none; font-weight: 600; font-size: 15px; line-height: 1.72; border-right-color: rgb(139, 139, 139); border-left-color: rgb(139, 139, 139); text-align: left;&quot;&gt;Ответственные&lt;/th&gt;&lt;th style=&quot;padding: 10px; border-bottom: 0.727273px solid rgb(139, 139, 139); border-top: none; font-weight: 600; font-size: 15px; line-height: 1.72; border-right-color: rgb(139, 139, 139); border-left-color: rgb(139, 139, 139); text-align: left;&quot;&gt;Ресурсы&lt;/th&gt;&lt;th style=&quot;padding: 10px; border-bottom: 0.727273px solid rgb(139, 139, 139); border-top: none; font-weight: 600; font-size: 15px; line-height: 1.72; border-right-color: rgb(139, 139, 139); border-left-color: rgb(139, 139, 139); text-align: left;&quot;&gt;Обоснование&lt;/th&gt;&lt;/tr&gt;&lt;/thead&gt;&lt;tbody&gt;&lt;tr&gt;&lt;td style=&quot;padding: 10px 10px 10px 0px; border-bottom: 0.727273px solid rgb(82, 82, 82); font-size: 15px; line-height: 1.72; border-top-color: rgb(82, 82, 82); border-right-color: rgb(82, 82, 82); border-left-color: rgb(82, 82, 82); min-width: 100px; max-width: max(30vw, 320px);&quot;&gt;&lt;strong style=&quot;font-weight: 600;&quot;&gt;1. Анализ и проектирование&lt;/strong&gt;&lt;/td&gt;&lt;td style=&quot;padding: 10px; border-bottom: 0.727273px solid rgb(82, 82, 82); font-size: 15px; line-height: 1.72; border-top-color: rgb(82, 82, 82); border-right-color: rgb(82, 82, 82); border-left-color: rgb(82, 82, 82); min-width: 100px; max-width: max(30vw, 320px);&quot;&gt;1 -2 мес.&lt;/td&gt;&lt;td style=&quot;padding: 10px; border-bottom: 0.727273px solid rgb(82, 82, 82); font-size: 15px; line-height: 1.72; border-top-color: rgb(82, 82, 82); border-right-color: rgb(82, 82, 82); border-left-color: rgb(82, 82, 82); min-width: 100px; max-width: max(30vw, 320px);&quot;&gt;- Определены границы доменов&lt;br&gt;- Схема взаимодействий&lt;br&gt;- Требования к витрине данных&lt;/td&gt;&lt;td style=&quot;padding: 10px; border-bottom: 0.727273px solid rgb(82, 82, 82); font-size: 15px; line-height: 1.72; border-top-color: rgb(82, 82, 82); border-right-color: rgb(82, 82, 82); border-left-color: rgb(82, 82, 82); min-width: 100px; max-width: max(30vw, 320px);&quot;&gt;Архитекторы, аналитики&lt;/td&gt;&lt;td style=&quot;padding: 10px; border-bottom: 0.727273px solid rgb(82, 82, 82); font-size: 15px; line-height: 1.72; border-top-color: rgb(82, 82, 82); border-right-color: rgb(82, 82, 82); border-left-color: rgb(82, 82, 82); min-width: 100px; max-width: max(30vw, 320px);&quot;&gt;Workshops, интервью с бизнесом&lt;/td&gt;&lt;td style=&quot;padding: 10px; border-bottom: 0.727273px solid rgb(82, 82, 82); font-size: 15px; line-height: 1.72; border-top-color: rgb(82, 82, 82); border-right-color: rgb(82, 82, 82); border-left-color: rgb(82, 82, 82); min-width: 100px; max-width: max(30vw, 320px);&quot;&gt;Необходимо чётко разделить данные и ответственность перед миграцией&lt;/td&gt;&lt;/tr&gt;&lt;tr&gt;&lt;td style=&quot;padding: 10px 10px 10px 0px; border-bottom: 0.727273px solid rgb(82, 82, 82); font-size: 15px; line-height: 1.72; border-top-color: rgb(82, 82, 82); border-right-color: rgb(82, 82, 82); border-left-color: rgb(82, 82, 82); min-width: 100px; max-width: max(30vw, 320px);&quot;&gt;&lt;strong style=&quot;font-weight: 600;&quot;&gt;2. Пилот: Финтех-домен&lt;/strong&gt;&lt;/td&gt;&lt;td style=&quot;padding: 10px; border-bottom: 0.727273px solid rgb(82, 82, 82); font-size: 15px; line-height: 1.72; border-top-color: rgb(82, 82, 82); border-right-color: rgb(82, 82, 82); border-left-color: rgb(82, 82, 82); min-width: 100px; max-width: max(30vw, 320px);&quot;&gt;2 мес.&lt;/td&gt;&lt;td style=&quot;padding: 10px; border-bottom: 0.727273px solid rgb(82, 82, 82); font-size: 15px; line-height: 1.72; border-top-color: rgb(82, 82, 82); border-right-color: rgb(82, 82, 82); border-left-color: rgb(82, 82, 82); min-width: 100px; max-width: max(30vw, 320px);&quot;&gt;- Отдельный микросервис финтеха&lt;br&gt;- Kafka для транзакций&lt;br&gt;- Первые Data Products&lt;/td&gt;&lt;td style=&quot;padding: 10px; border-bottom: 0.727273px solid rgb(82, 82, 82); font-size: 15px; line-height: 1.72; border-top-color: rgb(82, 82, 82); border-right-color: rgb(82, 82, 82); border-left-color: rgb(82, 82, 82); min-width: 100px; max-width: max(30vw, 320px);&quot;&gt;Dev-команда финтеха&lt;/td&gt;&lt;td style=&quot;padding: 10px; border-bottom: 0.727273px solid rgb(82, 82, 82); font-size: 15px; line-height: 1.72; border-top-color: rgb(82, 82, 82); border-right-color: rgb(82, 82, 82); border-left-color: rgb(82, 82, 82); min-width: 100px; max-width: max(30vw, 320px);&quot;&gt;Kafka, Golang/Java&lt;/td&gt;&lt;td style=&quot;padding: 10px; border-bottom: 0.727273px solid rgb(82, 82, 82); font-size: 15px; line-height: 1.72; border-top-color: rgb(82, 82, 82); border-right-color: rgb(82, 82, 82); border-left-color: rgb(82, 82, 82); min-width: 100px; max-width: max(30vw, 320px);&quot;&gt;Проверка подхода Data Mesh на наименее критичном домене&lt;/td&gt;&lt;/tr&gt;&lt;tr&gt;&lt;td style=&quot;padding: 10px 10px 10px 0px; border-bottom: 0.727273px solid rgb(82, 82, 82); font-size: 15px; line-height: 1.72; border-top-color: rgb(82, 82, 82); border-right-color: rgb(82, 82, 82); border-left-color: rgb(82, 82, 82); min-width: 100px; max-width: max(30vw, 320px);&quot;&gt;&lt;strong style=&quot;font-weight: 600;&quot;&gt;3. Внедрение Data Lake&lt;/strong&gt;&lt;/td&gt;&lt;td style=&quot;padding: 10px; border-bottom: 0.727273px solid rgb(82, 82, 82); font-size: 15px; line-height: 1.72; border-top-color: rgb(82, 82, 82); border-right-color: rgb(82, 82, 82); border-left-color: rgb(82, 82, 82); min-width: 100px; max-width: max(30vw, 320px);&quot;&gt;2-3 мес.&lt;/td&gt;&lt;td style=&quot;padding: 10px; border-bottom: 0.727273px solid rgb(82, 82, 82); font-size: 15px; line-height: 1.72; border-top-color: rgb(82, 82, 82); border-right-color: rgb(82, 82, 82); border-left-color: rgb(82, 82, 82); min-width: 100px; max-width: max(30vw, 320px);&quot;&gt;- MinIO/S3 + Delta Lake&lt;br&gt;- Перенос исторических данных&lt;/td&gt;&lt;td style=&quot;padding: 10px; border-bottom: 0.727273px solid rgb(82, 82, 82); font-size: 15px; line-height: 1.72; border-top-color: rgb(82, 82, 82); border-right-color: rgb(82, 82, 82); border-left-color: rgb(82, 82, 82); min-width: 100px; max-width: max(30vw, 320px);&quot;&gt;Data Engineers&lt;/td&gt;&lt;td style=&quot;padding: 10px; border-bottom: 0.727273px solid rgb(82, 82, 82); font-size: 15px; line-height: 1.72; border-top-color: rgb(82, 82, 82); border-right-color: rgb(82, 82, 82); border-left-color: rgb(82, 82, 82); min-width: 100px; max-width: max(30vw, 320px);&quot;&gt;AWS/GCP, Apache Spark&lt;/td&gt;&lt;td style=&quot;padding: 10px; border-bottom: 0.727273px solid rgb(82, 82, 82); font-size: 15px; line-height: 1.72; border-top-color: rgb(82, 82, 82); border-right-color: rgb(82, 82, 82); border-left-color: rgb(82, 82, 82); min-width: 100px; max-width: max(30vw, 320px);&quot;&gt;Централизованное хранение сырых данных для аналитики&lt;/td&gt;&lt;/tr&gt;&lt;tr&gt;&lt;td style=&quot;padding: 10px 10px 10px 0px; border-bottom: 0.727273px solid rgb(82, 82, 82); font-size: 15px; line-height: 1.72; border-top-color: rgb(82, 82, 82); border-right-color: rgb(82, 82, 82); border-left-color: rgb(82, 82, 82); min-width: 100px; max-width: max(30vw, 320px);&quot;&gt;&lt;strong style=&quot;font-weight: 600;&quot;&gt;4. Замена шины данных&lt;/strong&gt;&lt;/td&gt;&lt;td style=&quot;padding: 10px; border-bottom: 0.727273px solid rgb(82, 82, 82); font-size: 15px; line-height: 1.72; border-top-color: rgb(82, 82, 82); border-right-color: rgb(82, 82, 82); border-left-color: rgb(82, 82, 82); min-width: 100px; max-width: max(30vw, 320px);&quot;&gt;1-2 мес.&lt;/td&gt;&lt;td style=&quot;padding: 10px; border-bottom: 0.727273px solid rgb(82, 82, 82); font-size: 15px; line-height: 1.72; border-top-color: rgb(82, 82, 82); border-right-color: rgb(82, 82, 82); border-left-color: rgb(82, 82, 82); min-width: 100px; max-width: max(30vw, 320px);&quot;&gt;- Apache Camel → Kafka + Debezium (CDC)&lt;/td&gt;&lt;td style=&quot;padding: 10px; border-bottom: 0.727273px solid rgb(82, 82, 82); font-size: 15px; line-height: 1.72; border-top-color: rgb(82, 82, 82); border-right-color: rgb(82, 82, 82); border-left-color: rgb(82, 82, 82); min-width: 100px; max-width: max(30vw, 320px);&quot;&gt;Интеграторы&lt;/td&gt;&lt;td style=&quot;padding: 10px; border-bottom: 0.727273px solid rgb(82, 82, 82); font-size: 15px; line-height: 1.72; border-top-color: rgb(82, 82, 82); border-right-color: rgb(82, 82, 82); border-left-color: rgb(82, 82, 82); min-width: 100px; max-width: max(30vw, 320px);&quot;&gt;Kafka, Debezium&lt;/td&gt;&lt;td style=&quot;padding: 10px; border-bottom: 0.727273px solid rgb(82, 82, 82); font-size: 15px; line-height: 1.72; border-top-color: rgb(82, 82, 82); border-right-color: rgb(82, 82, 82); border-left-color: rgb(82, 82, 82); min-width: 100px; max-width: max(30vw, 320px);&quot;&gt;Устранение узкого места в интеграциях&lt;/td&gt;&lt;/tr&gt;&lt;tr&gt;&lt;td style=&quot;padding: 10px 10px 10px 0px; border-bottom: 0.727273px solid rgb(82, 82, 82); font-size: 15px; line-height: 1.72; border-top-color: rgb(82, 82, 82); border-right-color: rgb(82, 82, 82); border-left-color: rgb(82, 82, 82); min-width: 100px; max-width: max(30vw, 320px);&quot;&gt;&lt;strong style=&quot;font-weight: 600;&quot;&gt;5. Витрина данных (MVP)&lt;/strong&gt;&lt;/td&gt;&lt;td style=&quot;padding: 10px; border-bottom: 0.727273px solid rgb(82, 82, 82); font-size: 15px; line-height: 1.72; border-top-color: rgb(82, 82, 82); border-right-color: rgb(82, 82, 82); border-left-color: rgb(82, 82, 82); min-width: 100px; max-width: max(30vw, 320px);&quot;&gt;2-3 мес.&lt;/td&gt;&lt;td style=&quot;padding: 10px; border-bottom: 0.727273px solid rgb(82, 82, 82); font-size: 15px; line-height: 1.72; border-top-color: rgb(82, 82, 82); border-right-color: rgb(82, 82, 82); border-left-color: rgb(82, 82, 82); min-width: 100px; max-width: max(30vw, 320px);&quot;&gt;- Self-Service BI портал&lt;br&gt;- Демо-отчёты по финтеху и CRM&lt;/td&gt;&lt;td style=&quot;padding: 10px; border-bottom: 0.727273px solid rgb(82, 82, 82); font-size: 15px; line-height: 1.72; border-top-color: rgb(82, 82, 82); border-right-color: rgb(82, 82, 82); border-left-color: rgb(82, 82, 82); min-width: 100px; max-width: max(30vw, 320px);&quot;&gt;BI-разработчики&lt;/td&gt;&lt;td style=&quot;padding: 10px; border-bottom: 0.727273px solid rgb(82, 82, 82); font-size: 15px; line-height: 1.72; border-top-color: rgb(82, 82, 82); border-right-color: rgb(82, 82, 82); border-left-color: rgb(82, 82, 82); min-width: 100px; max-width: max(30vw, 320px);&quot;&gt;Superset/Metabase, ClickHouse&lt;/td&gt;&lt;td style=&quot;padding: 10px; border-bottom: 0.727273px solid rgb(82, 82, 82); font-size: 15px; line-height: 1.72; border-top-color: rgb(82, 82, 82); border-right-color: rgb(82, 82, 82); border-left-color: rgb(82, 82, 82); min-width: 100px; max-width: max(30vw, 320px);&quot;&gt;Быстрый доступ к данным для бизнеса&lt;/td&gt;&lt;/tr&gt;&lt;tr&gt;&lt;td style=&quot;padding: 10px 10px 10px 0px; border-bottom: 0.727273px solid rgb(82, 82, 82); font-size: 15px; line-height: 1.72; border-top-color: rgb(82, 82, 82); border-right-color: rgb(82, 82, 82); border-left-color: rgb(82, 82, 82); min-width: 100px; max-width: max(30vw, 320px);&quot;&gt;&lt;strong style=&quot;font-weight: 600;&quot;&gt;6. Миграция медицинского домена&lt;/strong&gt;&lt;/td&gt;&lt;td style=&quot;padding: 10px; border-bottom: 0.727273px solid rgb(82, 82, 82); font-size: 15px; line-height: 1.72; border-top-color: rgb(82, 82, 82); border-right-color: rgb(82, 82, 82); border-left-color: rgb(82, 82, 82); min-width: 100px; max-width: max(30vw, 320px);&quot;&gt;3-4 мес.&lt;/td&gt;&lt;td style=&quot;padding: 10px; border-bottom: 0.727273px solid rgb(82, 82, 82); font-size: 15px; line-height: 1.72; border-top-color: rgb(82, 82, 82); border-right-color: rgb(82, 82, 82); border-left-color: rgb(82, 82, 82); min-width: 100px; max-width: max(30vw, 320px);&quot;&gt;- PostgreSQL/FHIR для медданных&lt;br&gt;- ИИ-сервисы на новых API&lt;/td&gt;&lt;td style=&quot;padding: 10px; border-bottom: 0.727273px solid rgb(82, 82, 82); font-size: 15px; line-height: 1.72; border-top-color: rgb(82, 82, 82); border-right-color: rgb(82, 82, 82); border-left-color: rgb(82, 82, 82); min-width: 100px; max-width: max(30vw, 320px);&quot;&gt;Мед-IT команда&lt;/td&gt;&lt;td style=&quot;padding: 10px; border-bottom: 0.727273px solid rgb(82, 82, 82); font-size: 15px; line-height: 1.72; border-top-color: rgb(82, 82, 82); border-right-color: rgb(82, 82, 82); border-left-color: rgb(82, 82, 82); min-width: 100px; max-width: max(30vw, 320px);&quot;&gt;FHIR-стандарт, Python&lt;/td&gt;&lt;td style=&quot;padding: 10px; border-bottom: 0.727273px solid rgb(82, 82, 82); font-size: 15px; line-height: 1.72; border-top-color: rgb(82, 82, 82); border-right-color: rgb(82, 82, 82); border-left-color: rgb(82, 82, 82); min-width: 100px; max-width: max(30vw, 320px);&quot;&gt;Отказ от устаревшего DWH в самом сложном домене&lt;/td&gt;&lt;/tr&gt;&lt;tr&gt;&lt;td style=&quot;padding: 10px 10px 10px 0px; border-bottom: 0.727273px solid rgb(82, 82, 82); font-size: 15px; line-height: 1.72; border-top-color: rgb(82, 82, 82); border-right-color: rgb(82, 82, 82); border-left-color: rgb(82, 82, 82); min-width: 100px; max-width: max(30vw, 320px);&quot;&gt;&lt;strong style=&quot;font-weight: 600;&quot;&gt;7. Полное внедрение Data Mesh&lt;/strong&gt;&lt;/td&gt;&lt;td style=&quot;padding: 10px; border-bottom: 0.727273px solid rgb(82, 82, 82); font-size: 15px; line-height: 1.72; border-top-color: rgb(82, 82, 82); border-right-color: rgb(82, 82, 82); border-left-color: rgb(82, 82, 82); min-width: 100px; max-width: max(30vw, 320px);&quot;&gt;2 мес.&lt;/td&gt;&lt;td style=&quot;padding: 10px; border-bottom: 0.727273px solid rgb(82, 82, 82); font-size: 15px; line-height: 1.72; border-top-color: rgb(82, 82, 82); border-right-color: rgb(82, 82, 82); border-left-color: rgb(82, 82, 82); min-width: 100px; max-width: max(30vw, 320px);&quot;&gt;- Все домены на новых технологиях&lt;br&gt;- Сквозные метрики&lt;/td&gt;&lt;td style=&quot;padding: 10px; border-bottom: 0.727273px solid rgb(82, 82, 82); font-size: 15px; line-height: 1.72; border-top-color: rgb(82, 82, 82); border-right-color: rgb(82, 82, 82); border-left-color: rgb(82, 82, 82); min-width: 100px; max-width: max(30vw, 320px);&quot;&gt;Архитекторы, все Dev-команды&lt;/td&gt;&lt;td style=&quot;padding: 10px; border-bottom: 0.727273px solid rgb(82, 82, 82); font-size: 15px; line-height: 1.72; border-top-color: rgb(82, 82, 82); border-right-color: rgb(82, 82, 82); border-left-color: rgb(82, 82, 82); min-width: 100px; max-width: max(30vw, 320px);&quot;&gt;Документация, обучение&lt;/td&gt;&lt;td style=&quot;padding: 10px; border-bottom: 0.727273px solid rgb(82, 82, 82); font-size: 15px; line-height: 1.72; border-top-color: rgb(82, 82, 82); border-right-color: rgb(82, 82, 82); border-left-color: rgb(82, 82, 82); min-width: 100px; max-width: max(30vw, 320px);&quot;&gt;Финальная декомпозиция монолита&lt;/td&gt;&lt;/tr&gt;&lt;/tbody&gt;&lt;/table&gt;" style="text;whiteSpace=wrap;html=1;fontColor=default;labelBackgroundColor=none;" vertex="1" parent="1">
          <mxGeometry x="40" y="370" width="1780" height="600" as="geometry" />
        </mxCell>
      </root>
    </mxGraphModel>
  </diagram>
</mxfile>
